<?xml version="1.0" encoding="UTF-8" standalone="no"?>
<!-- Created with Inkscape (http://www.inkscape.org/) -->

<svg
   version="1.1"
   id="svg244"
   width="599.67999"
   height="233.60001"
   viewBox="0 0 599.67999 233.60001"
   sodipodi:docname="Star eau RVB.svg"
   inkscape:version="1.1.2 (0a00cf5339, 2022-02-04)"
   xmlns:inkscape="http://www.inkscape.org/namespaces/inkscape"
   xmlns:sodipodi="http://sodipodi.sourceforge.net/DTD/sodipodi-0.dtd"
   xmlns="http://www.w3.org/2000/svg"
   xmlns:svg="http://www.w3.org/2000/svg">
  <defs
     id="defs248" />
  <sodipodi:namedview
     id="namedview246"
     pagecolor="#ffffff"
     bordercolor="#666666"
     borderopacity="1.0"
     inkscape:pageshadow="2"
     inkscape:pageopacity="0.0"
     inkscape:pagecheckerboard="0"
     showgrid="false"
     inkscape:zoom="1.5871227"
     inkscape:cx="283.84699"
     inkscape:cy="137.67052"
     inkscape:window-width="1856"
     inkscape:window-height="1016"
     inkscape:window-x="64"
     inkscape:window-y="27"
     inkscape:window-maximized="1"
     inkscape:current-layer="g250" />
  <g
     inkscape:groupmode="layer"
     inkscape:label="Image"
     id="g250">
    <path
       style="fill:#0060b6;fill-opacity:1;stroke-width:0.64"
       d="m 35.455633,202.02403 c -3.714651,-1.32747 -6.110775,-3.39112 -7.711515,-6.64151 -1.462156,-2.96898 -1.49914,-3.50207 -1.686953,-24.31553 l -0.192021,-21.28 h 4.512021 4.512023 l 0.001,19.04 c 0.0012,21.61781 0.207484,22.7245 4.540992,24.35366 1.980156,0.74443 2.632072,0.7275 4.663032,-0.12109 3.599215,-1.50386 4.234951,-3.71664 4.234951,-14.74052 0,-5.09797 0.308738,-10.70864 0.686083,-12.46814 0.925705,-4.31642 3.643305,-7.887 7.379409,-9.69562 4.128856,-1.99875 11.548061,-2.04284 15.373254,-0.0914 3.334375,1.70107 6.387331,5.18516 7.242771,8.26559 0.392435,1.41313 0.672825,9.66297 0.674912,19.85749 l 0.0036,17.44 h -4.48 -4.48 v -16.35178 c 0,-17.75882 -0.237017,-19.15595 -3.502117,-20.64362 -2.061194,-0.93915 -5.126572,-0.98695 -6.773333,-0.10563 -2.785556,1.49078 -3.390369,4.13783 -3.797671,16.62103 -0.43121,13.21595 -1.110858,15.6329 -5.280971,18.78007 -3.827071,2.88828 -11.044717,3.83901 -15.919462,2.09697 z m 106.953557,0.16316 c -19.66979,-2.26912 -33.52869,-10.76178 -40.07901,-24.5602 -3.394229,-7.15003 -4.325544,-11.69248 -4.33012,-21.12 -0.0045,-9.43479 1.026829,-14.70353 4.16597,-21.28101 2.62232,-5.4946 9.36619,-12.55664 15.12828,-15.84204 l 4.4323,-2.5272 -4.53871,-2.66353 c -8.53962,-5.01146 -14.77401,-13.13145 -17.426649,-22.697405 -1.783674,-6.432256 -1.626599,-21.050756 0.298339,-27.766355 2.11632,-7.38327 4.90853,-12.191519 10.04777,-17.302472 5.32743,-5.298101 9.88493,-8.125957 17.09465,-10.606956 11.50731,-3.95988 11.55421,-3.962948 64.96718,-4.25002 l 48.8,-0.262281 v 15.060032 15.060033 l -47.52,0.179596 -47.52,0.179596 -3.61414,1.461342 c -8.15416,3.297052 -12.08181,9.145422 -12.55767,18.698659 -0.54932,11.027821 4.32938,17.567662 15.34531,20.570261 1.8435,0.50247 12.68891,0.83578 32.9865,1.01374 l 30.24,0.26515 v 13.36722 13.36723 l -31.52,0.1882 c -31.12254,0.18583 -31.56556,0.20662 -35.13269,1.64901 -5.2915,2.13962 -8.30692,4.59712 -10.4402,8.50855 -1.61292,2.95731 -1.93143,4.33646 -2.15344,9.32439 -0.19253,4.32551 0.0182,6.69319 0.80743,9.06914 1.29637,3.90301 5.33474,8.64999 8.91684,10.48148 6.54395,3.34584 5.6922,3.29178 55.92206,3.54999 l 46.88,0.24099 v 14.68233 14.68233 l -47.2,-0.083 c -25.96,-0.0456 -49.36,-0.3322 -52,-0.63676 z m 110.72,0.39236 c 0,-1.28898 56.10211,-152.285369 57.68317,-155.251737 5.63798,-10.577948 15.03887,-15.4246 29.99682,-15.464951 15.00176,-0.04047 24.24877,4.680487 29.88669,15.258293 1.54061,2.890494 43.13564,118.859615 53.98242,150.505835 l 1.80973,5.28 -15.15942,-0.006 -15.15942,-0.006 -7.92949,-22.63765 c -4.36121,-12.4507 -8.30731,-23.53623 -8.7691,-24.6345 l -0.83961,-1.99633 h -25.69937 c -23.33146,0 -25.66304,-0.0947 -25.30507,-1.02752 0.21686,-0.56514 2.19167,-6.0367 4.38847,-12.15903 l 3.99417,-11.13152 16.76223,-10e-4 c 9.21923,-5.3e-4 16.87788,-0.21696 17.01921,-0.48096 0.20585,-0.38448 -12.20452,-36.21492 -20.38172,-58.84484 -2.46813,-6.830413 -5.44739,-9.113634 -10.55818,-8.091477 -4.40815,0.881632 -3.94503,-0.213311 -30.64383,72.449957 l -25.19347,68.56667 H 268.0713 c -8.21816,0 -14.94211,-0.14735 -14.94211,-0.32744 z m 218.55999,-0.98523 c -23.75968,-2.96562 -37.68544,-15.1456 -42.75602,-37.39598 -1.26998,-5.57283 -1.32351,-7.96732 -1.55612,-69.61136 l -0.24091,-63.840003 h 15.38116 15.38115 l 0.17538,61.920003 0.17536,61.92001 1.85932,4.02654 c 2.31289,5.00884 7.2508,9.69876 12.38282,11.76098 3.56262,1.43157 4.39978,1.48473 26.71786,1.69672 25.00737,0.23752 27.45806,0.0112 33.6,-3.10338 5.8055,-2.94395 9.85991,-8.37559 11.47126,-15.36792 0.41602,-1.80527 0.6632,-19.48095 0.67309,-48.13295 l 0.0156,-45.280002 h 14.75599 14.756 l -0.24409,49.440002 c -0.21874,44.29935 -0.36053,49.9331 -1.3637,54.18234 -2.58307,10.94146 -6.08449,17.82283 -12.23591,24.04735 -6.41196,6.48817 -13.58482,10.22236 -24.30824,12.65488 -5.23233,1.18691 -8.25179,1.32197 -32.96,1.47428 -14.96,0.0922 -29.216,-0.084 -31.68,-0.39151 z M 42.569188,144.02699 v -2.56 h -4.48 -4.48 v -3.49076 -3.49076 l 4.32,-0.18924 4.32,-0.18924 0.185882,-5.28 0.185884,-5.28001 h 3.494116 3.494117 v 5.49507 5.49507 l 10.494205,-0.21507 c 12.847636,-0.2633 13.185795,-0.43549 13.185795,-6.71426 v -4.06081 h 3.607205 3.607208 l -0.316672,6.05417 c -0.340493,6.50952 -1.09929,8.4113 -4.156266,10.41692 -1.461408,0.9588 -3.581769,1.1604 -14.071087,1.33785 l -12.350388,0.20893 v 2.51107 2.51107 h -3.52 -3.519999 z m 22.508367,-23.64486 c -2.997046,-0.75164 -5.626022,-3.51617 -6.44797,-6.78043 -0.385219,-1.52984 -0.700398,-7.54999 -0.700398,-13.37812 V 89.626979 H 56.42469 c -2.652762,0 -5.338178,1.297856 -6.087288,2.941972 -0.462453,1.014976 -0.728215,6.02505 -0.728215,13.728149 v 12.12988 h -3.52 -3.519999 v -12.96422 c 0,-7.130327 0.283189,-13.951659 0.62931,-15.158507 0.346121,-1.206854 1.544702,-3.13872 2.663513,-4.293043 2.903506,-2.995661 6.369864,-3.573972 19.891043,-3.318535 15.392773,0.290797 14.256133,-1.041702 14.256133,16.712602 0,15.184623 -0.444461,17.167613 -4.39518,19.609283 -2.364613,1.46142 -7.503023,2.12835 -10.536452,1.36757 z m 6.67244,-8.42032 c 1.060306,-1.16987 1.24587,-2.57597 1.423905,-10.78957 0.245313,-11.317485 0.133046,-11.545261 -5.690427,-11.545261 h -3.794286 v 10.417601 c 0,12.12478 0.378891,13.2624 4.417098,13.2624 1.650299,0 2.813842,-0.42955 3.64371,-1.34517 z M 25.416994,61.626978 c 0.24895,-20.270202 0.47985,-21.372696 5.379439,-25.685486 3.452103,-3.038663 7.309159,-4.19119 12.603924,-3.766176 6.32244,0.507504 11.92136,4.20635 14.048808,9.281141 l 0.867565,2.06948 8.286229,-4.829097 c 4.557425,-2.656003 9.510228,-5.54341 11.006228,-6.416458 l 2.72,-1.587362 -0.01491,5.306979 -0.01491,5.306978 -10.865089,6.367546 -10.865087,6.367544 v 4.032456 4.032455 h -4.09259 -4.09259 l -0.251236,-7.52 C 49.855904,46.299746 49.001088,43.710179 46.10707,42.391576 c -2.146894,-0.978191 -5.568871,-0.978191 -7.715765,0 -3.09553,1.410418 -3.502117,3.249823 -3.502117,15.84362 v 11.551783 h 22.719999 22.72 v 4.8 4.8 H 52.76403 25.198874 Z"
       id="path491" />
  </g>
</svg>
